<?xml version="1.0" standalone="no"?>
<!DOCTYPE svg PUBLIC "-//W3C//DTD SVG 20010904//EN"
 "http://www.w3.org/TR/2001/REC-SVG-20010904/DTD/svg10.dtd">
<svg version="1.0" xmlns="http://www.w3.org/2000/svg"
 width="436.000000pt" height="436.000000pt" viewBox="0 0 436.000000 436.000000"
 preserveAspectRatio="xMidYMid meet">
<metadata>
Created by potrace 1.14, written by Peter Selinger 2001-2017
</metadata>
<g transform="translate(0.000000,436.000000) scale(0.100000,-0.100000)"
fill="#000000" stroke="none">
<path d="M16 2670 c-5 -8 2 -146 10 -220 4 -36 8 -76 9 -90 4 -30 10 -65 29
-150 45 -202 123 -386 233 -552 26 -40 50 -75 53 -78 3 -3 18 -23 35 -45 87
-119 326 -325 511 -443 133 -84 387 -202 468 -218 10 -2 33 -8 50 -13 42 -13
175 -40 244 -49 76 -9 949 -9 1036 1 394 44 816 259 1136 577 118 118 131 133
198 229 68 97 67 96 127 216 72 146 126 310 151 460 2 17 6 39 9 50 8 37 19
179 19 255 l1 75 -327 0 c-323 1 -328 0 -328 -20 -7 -298 -78 -556 -209 -755
-19 -30 -40 -60 -46 -66 -5 -7 -30 -36 -55 -65 -92 -107 -289 -256 -422 -317
-157 -73 -249 -95 -428 -106 l-25 -1 -3 665 -2 666 -313 -1 -312 0 -3 -666 -2
-666 -43 3 c-23 2 -62 6 -87 8 -329 34 -718 303 -894 618 -42 77 -89 194 -111
279 -19 73 -20 76 -29 144 -4 28 -10 66 -13 85 -3 19 -7 67 -8 105 -2 39 -4
75 -4 80 -1 11 -650 16 -655 5z"/>
</g>
</svg>
